<?xml version="1.0" standalone="no"?>
<!DOCTYPE svg PUBLIC "-//W3C//DTD SVG 20010904//EN"
 "http://www.w3.org/TR/2001/REC-SVG-20010904/DTD/svg10.dtd">
<svg version="1.0" xmlns="http://www.w3.org/2000/svg"
 width="486.000000pt" height="312.000000pt" viewBox="0 0 486.000000 312.000000"
 preserveAspectRatio="xMidYMid meet">
<metadata>
Created by potrace 1.13, written by Peter Selinger 2001-2015
</metadata>
<g transform="translate(0.000000,312.000000) scale(0.100000,-0.100000)"
fill="#DB2126" stroke="none">
<path d="M1869 3075 c-457 -72 -819 -314 -959 -643 -47 -112 -60 -181 -60
-337 1 -147 3 -156 50 -188 23 -16 123 -17 1443 -17 1528 0 1459 -2 1487 49 5
11 10 84 10 163 0 157 -15 233 -69 353 -103 228 -349 438 -629 539 -97 34
-249 72 -345 85 -115 16 -820 13 -928 -4z m265 -47 c-10 -13 -78 -88 -151
-168 -170 -187 -245 -279 -348 -420 -45 -63 -118 -155 -161 -204 -44 -49 -117
-139 -164 -200 l-85 -111 -83 -3 c-45 -2 -82 -1 -82 2 0 2 35 57 79 123 45 68
122 164 182 228 246 261 317 348 544 663 l80 111 104 0 104 1 -19 -22z m147 5
c-15 -27 -141 -183 -270 -334 -128 -151 -209 -257 -333 -439 -47 -69 -110
-152 -139 -185 -29 -33 -68 -81 -87 -107 l-34 -48 -85 0 c-65 0 -82 3 -77 13
21 34 140 187 244 312 64 77 155 192 202 255 48 63 119 152 160 197 40 46 127
143 193 217 l120 135 58 1 c52 0 57 -2 48 -17z m59 -2 c-5 -11 -47 -64 -92
-118 -108 -130 -199 -253 -290 -393 -41 -63 -105 -150 -141 -193 -81 -94 -137
-188 -188 -310 l-38 -92 -70 -3 c-39 -2 -71 0 -71 3 0 13 38 64 100 135 36 41
119 153 184 248 107 158 213 293 381 487 33 39 92 112 130 162 42 56 77 93 88
93 14 0 16 -4 7 -19z m86 -48 c-107 -134 -317 -430 -378 -535 -35 -59 -95
-160 -135 -224 -40 -65 -91 -160 -115 -211 l-43 -93 -66 0 c-36 0 -68 3 -71 6
-8 7 34 110 78 194 19 36 81 125 139 199 57 74 127 172 154 217 60 98 172 249
266 359 37 44 79 97 93 118 23 35 27 37 79 37 l54 0 -55 -67z m212 50 c-70
-81 -145 -189 -367 -523 -141 -212 -280 -432 -309 -488 l-53 -102 -65 0 c-40
0 -64 4 -64 11 0 21 78 176 117 235 22 33 68 109 103 169 105 184 324 499 463
668 l39 47 75 0 c72 0 75 -1 61 -17z m125 11 c3 -4 -10 -26 -31 -49 -20 -23
-57 -76 -81 -116 -62 -105 -149 -227 -310 -434 -77 -99 -161 -218 -188 -264
-26 -46 -74 -123 -106 -172 -47 -72 -63 -89 -83 -89 -13 0 -24 4 -24 10 0 48
532 875 677 1050 54 66 59 70 98 70 23 0 45 -3 48 -6z m-853 -13 c0 -5 -33
-53 -73 -108 -41 -54 -106 -141 -145 -193 -78 -105 -295 -355 -406 -468 -39
-40 -111 -132 -161 -205 -75 -110 -95 -133 -117 -135 -17 -2 -28 2 -28 8 0 35
254 351 402 501 153 156 205 219 308 369 114 167 176 240 201 240 10 0 19 -4
19 -9z m948 -1 c10 0 7 -11 -9 -37 -25 -43 -198 -259 -345 -433 -139 -164
-196 -255 -346 -550 l-43 -85 -47 -3 c-57 -4 -60 5 -19 57 15 20 52 79 81 131
70 125 83 143 255 365 82 105 191 255 243 334 113 173 167 235 196 227 12 -3
27 -6 34 -6z m-1028 -5 c0 -3 -22 -33 -48 -68 -27 -34 -77 -105 -112 -157 -81
-123 -122 -170 -312 -368 -102 -105 -203 -224 -285 -333 -76 -102 -133 -169
-141 -167 -8 2 -19 10 -24 18 -17 26 210 341 362 505 79 85 136 153 220 265
36 47 102 131 147 187 74 90 88 103 126 111 52 12 67 14 67 7z m1115 -15 c3
-5 -20 -45 -53 -87 -32 -43 -104 -145 -161 -228 -56 -82 -136 -195 -177 -250
-150 -202 -192 -263 -249 -360 -84 -145 -101 -165 -136 -165 -16 0 -29 3 -29
7 0 14 160 313 215 402 32 52 113 160 180 240 199 240 297 364 324 409 20 33
32 42 53 42 15 0 30 -4 33 -10z m96 -21 c19 -7 38 -15 43 -19 10 -10 -202
-326 -315 -470 -124 -157 -197 -269 -283 -432 l-77 -148 -85 0 c-46 0 -84 4
-84 9 0 27 150 262 282 442 83 112 189 260 236 329 144 211 213 300 232 300 9
0 32 -5 51 -11z m-1373 -16 c-31 -37 -178 -222 -259 -327 -46 -60 -124 -152
-173 -205 -91 -97 -228 -274 -301 -388 -22 -35 -43 -63 -47 -63 -24 0 2 48 82
155 49 66 110 156 136 200 25 44 61 104 78 133 17 30 73 103 123 164 51 60
120 149 153 198 34 49 68 94 77 102 19 16 100 46 127 47 17 1 18 -1 4 -16z
m1480 -21 c17 -11 -94 -185 -199 -311 -99 -119 -357 -504 -418 -626 -35 -68
-51 -91 -68 -93 -13 -2 -23 2 -23 9 0 18 146 284 203 369 28 41 89 125 137
185 48 61 142 192 209 293 68 100 128 182 134 182 7 0 18 -4 25 -8z m33 -99
c-31 -32 -82 -96 -113 -143 -47 -71 -368 -590 -460 -744 -24 -41 -32 -46 -63
-46 -19 0 -35 3 -35 6 0 52 282 491 445 694 51 63 123 161 160 217 l66 103 28
-15 28 -14 -56 -58z m-1687 65 c-18 -31 -96 -133 -200 -263 -62 -78 -140 -190
-176 -253 -62 -111 -216 -331 -230 -332 -5 0 -8 15 -8 33 2 83 16 111 156 302
350 477 345 471 399 498 57 29 69 32 59 15z m1806 -38 c22 -11 40 -23 40 -26
0 -4 -22 -36 -49 -73 -27 -36 -100 -151 -163 -256 -63 -104 -149 -244 -191
-311 -41 -66 -95 -159 -118 -207 l-43 -87 -83 0 c-46 0 -83 4 -83 8 0 13 382
636 472 770 43 65 162 202 175 202 2 0 22 -9 43 -20z m-1976 -52 c-4 -7 -58
-80 -119 -163 -61 -82 -154 -209 -206 -282 -51 -73 -96 -128 -97 -122 -2 5 2
32 8 59 9 37 30 73 80 135 38 46 83 106 101 132 78 115 144 195 182 223 45 31
63 38 51 18z m2062 -3 c5 -13 -143 -260 -296 -490 -95 -144 -173 -270 -212
-345 -24 -47 -40 -66 -56 -68 -12 -2 -22 -1 -22 3 0 15 89 179 143 265 33 52
112 181 175 285 197 326 251 396 268 350z m68 -44 c4 -5 -14 -33 -37 -63 -75
-91 -136 -187 -175 -272 -20 -44 -86 -180 -147 -301 l-110 -220 -58 -3 c-43
-2 -57 0 -57 11 0 18 116 213 249 416 59 91 149 232 200 313 82 130 95 147
111 138 11 -6 21 -14 24 -19z m59 -49 l28 -29 -58 -79 c-31 -43 -92 -128 -136
-189 -54 -74 -112 -175 -180 -312 -95 -192 -102 -203 -129 -203 -15 0 -28 3
-28 7 0 3 37 76 81 162 45 86 101 202 125 259 24 56 64 138 90 182 50 83 160
230 173 230 4 0 20 -13 34 -28z m117 -123 c7 -12 -12 -51 -72 -150 -44 -74
-110 -183 -145 -244 -36 -60 -93 -152 -126 -202 l-62 -93 -62 0 c-47 0 -63 3
-63 14 0 20 151 322 201 403 24 37 81 120 128 183 48 63 95 128 105 144 l18
28 35 -33 c19 -19 39 -41 43 -50z m60 -83 c0 -5 -17 -32 -38 -60 -73 -97 -166
-271 -236 -441 l-42 -100 -57 -3 c-37 -2 -57 1 -57 8 0 6 19 39 42 73 23 34
77 121 119 192 42 72 111 188 154 258 l78 129 18 -24 c10 -12 19 -27 19 -32z
m35 -56 c8 -16 15 -35 15 -43 0 -8 -38 -72 -84 -143 -46 -71 -105 -176 -131
-234 -26 -58 -52 -111 -57 -117 -12 -15 -68 -17 -68 -3 0 66 267 570 302 570
4 0 14 -13 23 -30z m54 -153 c1 -10 -25 -64 -58 -120 -32 -56 -78 -141 -102
-189 l-43 -88 -43 0 c-24 0 -43 2 -43 4 0 11 96 216 120 256 15 25 53 85 85
133 l59 89 12 -34 c7 -18 13 -41 13 -51z m26 -147 l6 -85 -43 -80 -43 -80 -62
-3 c-35 -2 -63 0 -63 3 0 28 181 348 191 338 4 -4 10 -46 14 -93z"/>
<path d="M898 1580 c-108 -105 -200 -190 -205 -190 -5 0 -54 43 -110 95 l-102
96 -17 -32 -16 -32 120 -120 121 -121 206 199 206 198 47 -44 c26 -24 118
-113 204 -198 l156 -154 202 194 c111 107 205 194 210 194 10 0 101 -85 272
-253 l137 -134 201 193 c111 107 205 194 210 194 11 0 88 -72 267 -248 l141
-140 201 194 c111 107 206 194 211 194 6 0 101 -87 211 -194 l201 -194 131
129 c72 71 134 131 137 132 3 2 -8 15 -24 28 l-29 25 -102 -100 c-56 -56 -108
-101 -115 -101 -8 0 -88 74 -179 163 -175 173 -222 217 -231 217 -3 0 -93 -84
-199 -187 -107 -104 -200 -189 -207 -191 -8 -2 -102 82 -209 187 -107 105
-198 191 -203 191 -4 0 -96 -85 -204 -190 -108 -104 -201 -190 -207 -190 -6 0
-99 86 -206 191 -107 105 -199 189 -205 187 -5 -1 -97 -87 -204 -190 -107
-104 -199 -188 -204 -188 -6 0 -98 86 -206 190 -107 105 -199 190 -203 190 -4
0 -96 -86 -205 -190z"/>
<path d="M989 1070 c-77 -40 -119 -117 -119 -215 0 -81 37 -157 99 -200 l43
-30 1311 -3 c869 -2 1324 1 1347 7 74 22 137 100 154 192 16 88 -39 201 -119
246 l-40 23 -1320 -1 c-1282 0 -1321 0 -1356 -19z m2687 -29 c39 -18 84 -65
97 -103 8 -22 11 -23 -47 7 -70 36 -142 34 -221 -5 -76 -38 -109 -38 -198 2
-103 45 -176 45 -277 -2 -64 -29 -88 -35 -168 -38 -85 -4 -102 -2 -195 29 -89
30 -115 34 -202 34 -93 0 -105 -3 -175 -35 -71 -33 -80 -35 -185 -35 -101 1
-119 4 -220 39 -139 48 -245 53 -335 15 -78 -33 -231 -33 -348 0 -99 28 -175
25 -241 -9 -24 -12 -45 -20 -47 -17 -2 2 9 24 25 49 18 29 44 52 72 66 l44 22
1290 0 c1238 0 1292 -1 1331 -19z m-1786 -148 c97 -34 114 -37 215 -38 104 0
114 2 185 34 63 29 89 35 165 39 81 3 100 1 185 -28 111 -37 224 -49 297 -31
26 7 79 26 117 43 86 38 150 36 245 -7 86 -39 144 -38 231 4 36 17 73 31 84
31 40 0 98 -25 137 -58 36 -31 39 -38 33 -66 -11 -54 -47 -107 -90 -132 l-41
-24 -1307 0 c-945 0 -1313 3 -1329 11 -46 24 -88 74 -102 123 -14 48 -14 51 7
73 60 65 161 79 295 42 107 -30 236 -30 323 -2 96 32 99 32 175 28 47 -3 104
-17 175 -42z"/>
<path d="M768 449 c-29 -29 -30 -33 -24 -87 14 -119 87 -220 195 -271 l56 -26
1350 0 1350 0 55 26 c31 14 72 41 93 58 48 43 97 142 104 214 5 53 4 58 -25
86 l-30 31 -1547 0 -1547 0 -30 -31z m327 -28 c-199 -190 -238 -222 -253 -207
-23 22 -3 55 89 149 77 77 77 77 130 77 53 0 53 0 34 -19z m-15 -130 c-80 -81
-148 -149 -152 -150 -4 0 -19 10 -35 23 l-28 24 30 24 c17 12 79 69 139 125
102 96 112 103 150 103 l40 0 -144 -149z m167 27 c-68 -68 -142 -145 -165
-171 l-40 -48 -46 12 c-25 6 -46 16 -46 22 0 6 68 78 152 159 l152 148 58 0
59 0 -124 -122z m274 103 c-15 -27 -102 -104 -207 -181 -50 -37 -104 -84 -121
-104 -28 -34 -34 -37 -76 -34 l-47 3 85 96 c46 53 121 129 166 168 l82 71 64
0 c59 0 63 -1 54 -19z m-71 -151 c-173 -167 -176 -169 -219 -170 l-45 0 35 36
c18 20 68 62 109 92 112 83 175 139 201 177 20 29 30 35 59 34 35 0 33 -2
-140 -169z m182 64 c-61 -58 -133 -134 -159 -170 l-47 -64 -58 0 c-32 0 -58 4
-58 8 0 5 74 78 165 163 90 85 165 157 165 162 0 4 23 7 51 7 l52 0 -111 -106z
m160 32 c-39 -41 -103 -118 -142 -170 l-72 -96 -65 0 -64 0 33 48 c18 26 89
102 157 170 l125 122 49 0 50 0 -71 -74z m152 -11 c-55 -50 -115 -119 -150
-170 l-58 -85 -68 0 -69 0 66 87 c37 49 100 125 141 171 l76 82 76 0 77 0 -91
-85z m201 74 c-4 -5 -71 -63 -149 -128 -78 -65 -157 -137 -175 -160 -34 -43
-71 -59 -51 -22 31 59 131 176 207 244 80 71 91 77 131 77 28 0 41 -4 37 -11z
m79 -1 c-27 -46 -151 -195 -214 -255 l-75 -73 -57 0 c-32 0 -58 2 -58 5 0 20
51 71 169 169 75 62 147 125 160 140 26 27 90 39 75 14z m176 -25 c-18 -21
-69 -70 -113 -110 -44 -39 -100 -99 -125 -132 l-45 -61 -75 0 -75 0 79 83 c44
45 108 121 144 170 l64 87 89 0 89 0 -32 -37z m94 5 c-117 -127 -156 -173
-203 -236 -52 -70 -55 -72 -97 -72 -24 0 -44 4 -44 8 0 18 58 84 178 203 110
108 132 126 161 127 l35 2 -30 -32z m165 15 c-7 -10 -54 -58 -104 -108 -51
-49 -117 -118 -147 -153 -54 -63 -55 -63 -103 -60 l-49 3 69 85 c37 47 102
122 144 167 l76 81 64 1 c59 1 62 0 50 -16z m10 -90 c-58 -60 -124 -136 -147
-170 -42 -62 -44 -63 -87 -63 -25 0 -45 4 -45 8 0 9 114 135 225 248 72 73 84
82 119 83 l39 1 -104 -107z m241 103 c0 -2 -32 -29 -71 -61 -98 -79 -131 -114
-189 -200 -50 -75 -51 -75 -95 -75 -25 0 -45 4 -45 8 0 23 75 115 176 218
l113 114 56 0 c30 0 55 -2 55 -4z m110 -1 c0 -3 -39 -47 -86 -97 -48 -51 -109
-126 -137 -165 l-51 -73 -64 0 -63 0 52 76 c29 42 76 96 104 120 155 133 169
143 208 143 20 1 37 -1 37 -4z m75 -72 c-44 -42 -111 -106 -148 -142 -38 -36
-78 -78 -89 -93 -13 -20 -28 -28 -49 -28 -16 0 -29 4 -29 9 0 23 86 134 196
250 l76 81 62 0 61 0 -80 -77z m139 65 c-5 -7 -40 -51 -79 -98 -38 -47 -94
-118 -123 -158 l-54 -72 -59 0 -60 0 28 37 c15 20 84 88 153 150 68 63 130
123 138 134 15 21 69 28 56 7z m76 -86 c-61 -63 -109 -123 -135 -169 l-40 -73
-62 0 c-35 0 -63 3 -63 6 0 11 41 66 149 202 l106 132 70 0 70 0 -95 -98z
m220 90 c0 -4 -43 -50 -95 -102 -53 -52 -117 -125 -142 -162 -45 -66 -48 -68
-90 -68 -24 0 -43 3 -43 7 0 10 50 94 83 138 16 22 66 75 111 117 78 75 83 78
129 78 26 0 47 -3 47 -8z m84 -54 c-73 -75 -191 -221 -206 -254 -10 -22 -18
-24 -75 -24 -58 0 -63 2 -54 18 20 37 106 141 189 228 l87 91 60 2 59 1 -60
-62z m167 44 c-5 -10 -49 -63 -97 -118 -48 -54 -103 -123 -122 -151 -35 -53
-35 -53 -88 -53 -30 0 -54 3 -54 8 0 19 124 175 214 270 57 59 61 62 108 62
44 0 48 -2 39 -18z m115 4 c7 -18 -38 -85 -117 -174 -33 -37 -72 -86 -86 -109
-25 -43 -25 -43 -84 -43 -32 0 -59 3 -59 8 0 4 31 44 68 89 37 45 96 118 132
162 60 75 68 81 103 81 24 0 40 -5 43 -14z m-9 -149 c-13 -29 -41 -70 -62 -90
-35 -34 -114 -81 -123 -73 -8 9 24 54 86 121 36 39 76 88 91 109 26 40 26 40
29 13 2 -15 -8 -51 -21 -80z"/>
</g>
</svg>
