<?xml version="1.0" encoding="iso-8859-1"?>
<!-- Generator: Adobe Illustrator 16.0.0, SVG Export Plug-In . SVG Version: 6.00 Build 0)  -->
<!DOCTYPE svg PUBLIC "-//W3C//DTD SVG 1.1//EN" "http://www.w3.org/Graphics/SVG/1.1/DTD/svg11.dtd">
<svg fill="#FFF" version="1.1" id="Capa_1" xmlns="http://www.w3.org/2000/svg" xmlns:xlink="http://www.w3.org/1999/xlink" x="0px" y="0px"
	 width="35.487px" height="35.487px" viewBox="0 0 35.487 35.487" style="enable-background:new 0 0 35.487 35.487;"
	 xml:space="preserve">
<g>
	<path d="M31.847,25.534c0,1.94-1.379,4.056-3.08,4.056s-3.08-2.113-3.08-4.056s1.379-2.969,3.08-2.969S31.847,23.594,31.847,25.534
		z M3.643,25.534c0,1.94,1.379,4.056,3.08,4.056s3.08-2.113,3.08-4.056s-1.379-2.969-3.08-2.969S3.643,23.594,3.643,25.534z
		 M14.666,25.534c0,1.94,1.378,4.056,3.079,4.056c1.701,0,3.08-2.113,3.08-4.056s-1.379-2.969-3.08-2.969
		C16.044,22.565,14.666,23.594,14.666,25.534z M33.489,30.911c-0.256-0.256-0.602-0.399-0.961-0.399h-2.922H27.92h-2.916
		c-0.746,0-1.354,0.604-1.354,1.354l-0.002,3.621h10.188l0.043-3.609C33.884,31.516,33.743,31.169,33.489,30.911z M10.485,30.512
		H7.563H5.878H2.962c-0.747,0-1.354,0.604-1.354,1.354v3.621h10.187l0.043-3.609c0.003-0.358-0.138-0.707-0.393-0.965
		C11.192,30.655,10.847,30.512,10.485,30.512z M21.507,30.512h-2.921h-1.685h-2.916c-0.747,0-1.354,0.604-1.354,1.354l-0.002,3.621
		h10.186l0.043-3.609c0.004-0.358-0.137-0.707-0.391-0.965S21.868,30.512,21.507,30.512z M32.723,3.449v13.578
		c0,1.904-1.543,3.447-3.447,3.447H13.495v-9.296l1.991,2.7c0.325,0.443,0.938,0.566,1.409,0.283l2.377-1.426
		c0.508-0.306,0.672-0.962,0.367-1.468c-0.305-0.508-0.961-0.672-1.467-0.366l-1.543,0.926l-1.918-2.604
		C14.51,8.951,14.19,8.787,13.85,8.787h-2.305l-0.402,0.537l0.74,4.191l-1.002,0.944l-1.003-0.944l0.74-4.191l-0.403-0.537H7.909
		c-0.59,0-1.069,0.479-1.069,1.068v6.951c0,0.59,0.479,1.067,1.069,1.067c0.126,0,0.245-0.024,0.356-0.063v2.663H6.214
		c-1.904,0-3.447-1.543-3.447-3.447V3.447C2.767,1.543,4.31,0,6.214,0h23.062C31.181,0.001,32.723,1.544,32.723,3.449z
		 M13.313,4.857c0-1.533-1.09-2.346-2.434-2.346c-1.343,0-2.432,0.813-2.432,2.346c0,1.533,1.089,3.205,2.432,3.205
		C12.223,8.062,13.313,6.39,13.313,4.857z"/>
</g>
<g>
</g>
<g>
</g>
<g>
</g>
<g>
</g>
<g>
</g>
<g>
</g>
<g>
</g>
<g>
</g>
<g>
</g>
<g>
</g>
<g>
</g>
<g>
</g>
<g>
</g>
<g>
</g>
<g>
</g>
</svg>
